<svg width="461" height="19" viewBox="0 0 461 19" fill="none" xmlns="http://www.w3.org/2000/svg">
<path d="M4.4297 1.454H0.523695V14H4.4297C8.5517 14 11.0897 11.642 11.0897 7.754C11.0897 3.866 8.5517 1.454 4.4297 1.454ZM2.1617 12.65V2.786H4.4297C7.7057 2.786 9.4157 4.694 9.4157 7.754C9.4157 10.814 7.7057 12.65 4.4297 12.65H2.1617ZM17.4443 5.36C19.1363 5.36 20.5763 6.422 20.5583 8.348H14.3303C14.5103 6.422 15.8423 5.36 17.4443 5.36ZM22.0523 10.958H20.2883C19.9283 12.02 18.9923 12.776 17.5163 12.776C15.8423 12.776 14.4383 11.678 14.3123 9.68H22.1963C22.2323 9.338 22.2503 9.05 22.2503 8.69C22.2503 5.99 20.3783 3.974 17.5163 3.974C14.6363 3.974 12.6383 5.936 12.6383 9.05C12.6383 12.182 14.7083 14.162 17.5163 14.162C19.9643 14.162 21.5483 12.758 22.0523 10.958ZM31.5044 11.318C31.4324 7.79 25.7084 9.068 25.7084 6.728C25.7084 5.936 26.4284 5.36 27.6344 5.36C28.9484 5.36 29.7044 6.08 29.7764 7.07H31.4144C31.3064 5.144 29.8664 3.974 27.6884 3.974C25.4924 3.974 24.0704 5.216 24.0704 6.728C24.0704 10.4 29.9024 9.122 29.9024 11.318C29.9024 12.128 29.1824 12.776 27.8864 12.776C26.5004 12.776 25.6544 12.056 25.5644 11.102H23.8724C23.9804 12.902 25.6004 14.162 27.9044 14.162C30.0824 14.162 31.5044 12.938 31.5044 11.318ZM33.8167 14H35.4547V4.136H33.8167V14ZM34.6627 2.534C35.2567 2.534 35.7427 2.048 35.7427 1.418C35.7427 0.788 35.2567 0.301999 34.6627 0.301999C34.0327 0.301999 33.5467 0.788 33.5467 1.418C33.5467 2.048 34.0327 2.534 34.6627 2.534ZM37.6344 9.032C37.6344 12.092 39.6684 14.162 42.3144 14.162C44.1144 14.162 45.3924 13.208 45.9864 12.146V14.216C45.9864 16.322 44.6724 17.438 42.9264 17.438C41.3064 17.438 40.1364 16.628 39.7764 15.44H38.1564C38.4804 17.546 40.3344 18.86 42.9264 18.86C45.8244 18.86 47.6424 16.934 47.6424 14.216V4.136H45.9864V5.936C45.4104 4.874 44.1144 3.974 42.3144 3.974C39.6684 3.974 37.6344 5.954 37.6344 9.032ZM45.9864 9.05C45.9864 11.372 44.4384 12.722 42.6384 12.722C40.8384 12.722 39.3084 11.354 39.3084 9.032C39.3084 6.71 40.8384 5.396 42.6384 5.396C44.4384 5.396 45.9864 6.764 45.9864 9.05ZM57.6284 14H59.2484V8.186C59.2484 5.36 57.5024 3.956 55.2164 3.956C53.8844 3.956 52.6964 4.514 52.0484 5.54V4.136H50.4104V14H52.0484V8.546C52.0484 6.422 53.2004 5.378 54.8744 5.378C56.5304 5.378 57.6284 6.404 57.6284 8.42V14ZM66.1181 5.36C67.8101 5.36 69.2501 6.422 69.2321 8.348H63.0041C63.1841 6.422 64.5161 5.36 66.1181 5.36ZM70.7261 10.958H68.9621C68.6021 12.02 67.6661 12.776 66.1901 12.776C64.5161 12.776 63.1121 11.678 62.9861 9.68H70.8701C70.9061 9.338 70.9241 9.05 70.9241 8.69C70.9241 5.99 69.0521 3.974 66.1901 3.974C63.3101 3.974 61.3121 5.936 61.3121 9.05C61.3121 12.182 63.3821 14.162 66.1901 14.162C68.6381 14.162 70.2221 12.758 70.7261 10.958ZM72.4742 9.032C72.4742 12.092 74.5082 14.162 77.1542 14.162C78.9542 14.162 80.2322 13.244 80.8262 12.146V14H82.4822V0.68H80.8262V5.9C80.1422 4.766 78.7202 3.974 77.1722 3.974C74.5082 3.974 72.4742 5.954 72.4742 9.032ZM80.8262 9.05C80.8262 11.372 79.2782 12.722 77.4782 12.722C75.6782 12.722 74.1482 11.354 74.1482 9.032C74.1482 6.71 75.6782 5.396 77.4782 5.396C79.2782 5.396 80.8262 6.764 80.8262 9.05ZM89.4371 9.032C89.4371 12.092 91.4711 14.162 94.0991 14.162C95.9171 14.162 97.1951 13.226 97.7891 12.164V14H99.4451V4.136H97.7891V5.936C97.2131 4.91 95.9531 3.974 94.1171 3.974C91.4711 3.974 89.4371 5.954 89.4371 9.032ZM97.7891 9.05C97.7891 11.372 96.2411 12.722 94.4411 12.722C92.6411 12.722 91.1111 11.354 91.1111 9.032C91.1111 6.71 92.6411 5.396 94.4411 5.396C96.2411 5.396 97.7891 6.764 97.7891 9.05ZM109.431 14H111.051V8.186C111.051 5.36 109.305 3.956 107.019 3.956C105.687 3.956 104.499 4.514 103.851 5.54V4.136H102.213V14H103.851V8.546C103.851 6.422 105.003 5.378 106.677 5.378C108.333 5.378 109.431 6.404 109.431 8.42V14ZM113.115 9.032C113.115 12.092 115.149 14.162 117.795 14.162C119.595 14.162 120.873 13.244 121.467 12.146V14H123.123V0.68H121.467V5.9C120.783 4.766 119.361 3.974 117.813 3.974C115.149 3.974 113.115 5.954 113.115 9.032ZM121.467 9.05C121.467 11.372 119.919 12.722 118.119 12.722C116.319 12.722 114.789 11.354 114.789 9.032C114.789 6.71 116.319 5.396 118.119 5.396C119.919 5.396 121.467 6.764 121.467 9.05ZM132.328 5.972V0.68H130.69V14H132.328V12.182C132.94 13.262 134.218 14.162 136.018 14.162C138.664 14.162 140.698 12.092 140.698 9.032C140.698 5.954 138.682 3.974 136.018 3.974C134.272 3.974 132.958 4.874 132.328 5.972ZM139.024 9.032C139.024 11.354 137.494 12.722 135.676 12.722C133.894 12.722 132.328 11.372 132.328 9.05C132.328 6.764 133.894 5.396 135.676 5.396C137.494 5.396 139.024 6.71 139.024 9.032ZM151.602 4.136H149.964V9.554C149.964 11.678 148.83 12.722 147.138 12.722C145.482 12.722 144.384 11.696 144.384 9.698V4.136H142.764V9.914C142.764 12.74 144.546 14.144 146.814 14.144C148.128 14.144 149.334 13.568 149.964 12.542V14H151.602V4.136ZM154.367 14H156.005V4.136H154.367V14ZM155.213 2.534C155.807 2.534 156.293 2.048 156.293 1.418C156.293 0.788 155.807 0.301999 155.213 0.301999C154.583 0.301999 154.097 0.788 154.097 1.418C154.097 2.048 154.583 2.534 155.213 2.534ZM158.797 14H160.435V0.68H158.797V14ZM163.587 11.3C163.587 13.28 164.577 14 166.323 14H167.799V12.614H166.593C165.585 12.614 165.225 12.272 165.225 11.3V5.486H167.799V4.136H165.225V1.652H163.587V4.136H162.309V5.486H163.587V11.3ZM176.22 5.972V0.68H174.582V14H176.22V12.182C176.832 13.262 178.11 14.162 179.91 14.162C182.556 14.162 184.59 12.092 184.59 9.032C184.59 5.954 182.574 3.974 179.91 3.974C178.164 3.974 176.85 4.874 176.22 5.972ZM182.916 9.032C182.916 11.354 181.386 12.722 179.568 12.722C177.786 12.722 176.22 11.372 176.22 9.05C176.22 6.764 177.786 5.396 179.568 5.396C181.386 5.396 182.916 6.71 182.916 9.032ZM190.49 12.128L187.394 4.136H185.576L189.554 13.892L187.61 18.644H189.302L195.242 4.136H193.55L190.49 12.128ZM299.081 14H300.773L303.149 6.17L305.525 14H307.217L310.295 4.136H308.675L306.443 12.434L304.049 4.136H302.375L299.927 12.416L297.659 4.136H295.985L299.081 14ZM311.92 14H313.558V4.136H311.92V14ZM312.766 2.534C313.36 2.534 313.846 2.048 313.846 1.418C313.846 0.788 313.36 0.301999 312.766 0.301999C312.136 0.301999 311.65 0.788 311.65 1.418C311.65 2.048 312.136 2.534 312.766 2.534ZM316.71 11.3C316.71 13.28 317.7 14 319.446 14H320.922V12.614H319.716C318.708 12.614 318.348 12.272 318.348 11.3V5.486H320.922V4.136H318.348V1.652H316.71V4.136H315.432V5.486H316.71V11.3ZM322.907 14H324.545V8.546C324.545 6.422 325.697 5.378 327.371 5.378C329.027 5.378 330.125 6.404 330.125 8.42V14H331.745V8.186C331.745 5.36 329.999 3.956 327.803 3.956C326.417 3.956 325.193 4.514 324.545 5.558V0.68H322.907V14ZM392.113 4.136C392.203 2.462 390.997 1.202 389.017 1.202C386.983 1.202 385.705 2.39 385.705 3.992C385.705 4.91 386.011 5.612 386.785 6.512C384.823 7.286 383.833 8.672 383.833 10.4C383.833 12.722 385.615 14.216 388.225 14.216C389.989 14.216 391.339 13.604 392.545 12.344L394.183 14H396.325L393.499 11.174C393.751 10.814 393.985 10.454 394.219 10.04L395.695 7.484H393.931L392.707 9.536C392.599 9.716 392.491 9.878 392.383 10.04L388.639 6.278C387.757 5.342 387.343 4.73 387.343 3.992C387.343 3.164 387.973 2.552 388.945 2.552C389.827 2.552 390.511 3.11 390.475 4.136H392.113ZM388.225 12.812C386.587 12.812 385.471 11.75 385.471 10.346C385.471 9.086 386.209 8.15 387.775 7.556L391.465 11.264C390.529 12.308 389.521 12.812 388.225 12.812Z" fill="#666666"/>
<path d="M203.326 7.412V2.804H205.738C207.61 2.804 208.402 3.668 208.402 5.126C208.402 6.53 207.61 7.412 205.738 7.412H203.326ZM210.076 5.126C210.076 3.074 208.69 1.454 205.738 1.454H201.688V14H203.326V8.762H205.738C208.852 8.762 210.076 7.034 210.076 5.126ZM211.5 9.032C211.5 12.092 213.534 14.162 216.162 14.162C217.98 14.162 219.258 13.226 219.852 12.164V14H221.508V4.136H219.852V5.936C219.276 4.91 218.016 3.974 216.18 3.974C213.534 3.974 211.5 5.954 211.5 9.032ZM219.852 9.05C219.852 11.372 218.304 12.722 216.504 12.722C214.704 12.722 213.174 11.354 213.174 9.032C213.174 6.71 214.704 5.396 216.504 5.396C218.304 5.396 219.852 6.764 219.852 9.05ZM223.106 4.136L226.976 14H228.884L232.754 4.136H231.008L227.948 12.488L224.87 4.136H223.106ZM233.753 9.032C233.753 12.092 235.787 14.162 238.415 14.162C240.233 14.162 241.511 13.226 242.105 12.164V14H243.761V4.136H242.105V5.936C241.529 4.91 240.269 3.974 238.433 3.974C235.787 3.974 233.753 5.954 233.753 9.032ZM242.105 9.05C242.105 11.372 240.557 12.722 238.757 12.722C236.957 12.722 235.427 11.354 235.427 9.032C235.427 6.71 236.957 5.396 238.757 5.396C240.557 5.396 242.105 6.764 242.105 9.05ZM253.748 14H255.368V8.186C255.368 5.36 253.622 3.956 251.336 3.956C250.004 3.956 248.816 4.514 248.168 5.54V4.136H246.53V14H248.168V8.546C248.168 6.422 249.32 5.378 250.994 5.378C252.65 5.378 253.748 6.404 253.748 8.42V14ZM262.842 14H264.48V4.694L268.638 14H269.79L273.93 4.712V14H275.568V1.544H273.822L269.214 11.84L264.606 1.544H262.842V14ZM284.034 1.31C280.506 1.31 277.734 3.956 277.734 7.718C277.734 11.48 280.506 14.108 284.034 14.108C287.436 14.108 289.902 11.606 290.19 8.492V7.232H283.44V8.564H288.444C288.192 11.048 286.5 12.632 284.034 12.632C281.388 12.632 279.408 10.724 279.408 7.718C279.408 4.694 281.388 2.786 284.034 2.786C285.798 2.786 287.166 3.632 287.85 5.09H289.812C288.876 2.678 286.68 1.31 284.034 1.31ZM339.219 1.454V14H345.249V12.668H340.857V1.454H339.219ZM356.349 9.05C356.349 5.936 354.171 3.974 351.363 3.974C348.573 3.974 346.377 5.936 346.377 9.05C346.377 12.182 348.501 14.162 351.291 14.162C354.099 14.162 356.349 12.182 356.349 9.05ZM348.051 9.05C348.051 6.566 349.617 5.396 351.345 5.396C353.037 5.396 354.675 6.566 354.675 9.05C354.675 11.552 353.001 12.722 351.291 12.722C349.581 12.722 348.051 11.552 348.051 9.05ZM357.332 4.136L361.202 14H363.11L366.98 4.136H365.234L362.174 12.488L359.096 4.136H357.332ZM372.786 5.36C374.478 5.36 375.918 6.422 375.9 8.348H369.672C369.852 6.422 371.184 5.36 372.786 5.36ZM377.394 10.958H375.63C375.27 12.02 374.334 12.776 372.858 12.776C371.184 12.776 369.78 11.678 369.654 9.68H377.538C377.574 9.338 377.592 9.05 377.592 8.69C377.592 5.99 375.72 3.974 372.858 3.974C369.978 3.974 367.98 5.936 367.98 9.05C367.98 12.182 370.05 14.162 372.858 14.162C375.306 14.162 376.89 12.758 377.394 10.958ZM402.046 7.718C402.046 11.48 404.8 14.108 408.31 14.108C411.028 14.108 413.188 12.758 414.124 10.346H412.162C411.478 11.84 410.146 12.686 408.31 12.686C405.682 12.686 403.72 10.778 403.72 7.718C403.72 4.64 405.682 2.732 408.31 2.732C410.146 2.732 411.478 3.578 412.162 5.09H414.124C413.188 2.66 411.028 1.292 408.31 1.292C404.8 1.292 402.046 3.956 402.046 7.718ZM425.923 9.05C425.923 5.936 423.745 3.974 420.937 3.974C418.147 3.974 415.951 5.936 415.951 9.05C415.951 12.182 418.075 14.162 420.865 14.162C423.673 14.162 425.923 12.182 425.923 9.05ZM417.625 9.05C417.625 6.566 419.191 5.396 420.919 5.396C422.611 5.396 424.249 6.566 424.249 9.05C424.249 11.552 422.575 12.722 420.865 12.722C419.155 12.722 417.625 11.552 417.625 9.05ZM428.382 14H430.02V5.486H432.09V4.136H430.02V3.434C430.02 2.156 430.506 1.616 431.982 1.616V0.247999C429.462 0.247999 428.382 1.238 428.382 3.434V4.136H427.104V5.486H428.382V14ZM434.306 14H435.944V5.486H438.014V4.136H435.944V3.434C435.944 2.156 436.43 1.616 437.906 1.616V0.247999C435.386 0.247999 434.306 1.238 434.306 3.434V4.136H433.028V5.486H434.306V14ZM444.118 5.36C445.81 5.36 447.25 6.422 447.232 8.348H441.004C441.184 6.422 442.516 5.36 444.118 5.36ZM448.726 10.958H446.962C446.602 12.02 445.666 12.776 444.19 12.776C442.516 12.776 441.112 11.678 440.986 9.68H448.87C448.906 9.338 448.924 9.05 448.924 8.69C448.924 5.99 447.052 3.974 444.19 3.974C441.31 3.974 439.312 5.936 439.312 9.05C439.312 12.182 441.382 14.162 444.19 14.162C446.638 14.162 448.222 12.758 448.726 10.958ZM455.28 5.36C456.972 5.36 458.412 6.422 458.394 8.348H452.166C452.346 6.422 453.678 5.36 455.28 5.36ZM459.888 10.958H458.124C457.764 12.02 456.828 12.776 455.352 12.776C453.678 12.776 452.274 11.678 452.148 9.68H460.032C460.068 9.338 460.086 9.05 460.086 8.69C460.086 5.99 458.214 3.974 455.352 3.974C452.472 3.974 450.474 5.936 450.474 9.05C450.474 12.182 452.544 14.162 455.352 14.162C457.8 14.162 459.384 12.758 459.888 10.958Z" fill="url(#paint0_linear_10_179)"/>
<defs>
<linearGradient id="paint0_linear_10_179" x1="-23.1239" y1="8.00005" x2="461" y2="8.00007" gradientUnits="userSpaceOnUse">
<stop offset="0.0260229" stop-color="#13B0F5"/>
<stop offset="1" stop-color="#E70FAA"/>
</linearGradient>
</defs>
</svg>
