<svg width="592" height="290" viewBox="0 0 592 290" fill="none" xmlns="http://www.w3.org/2000/svg">
<path d="M25.942 56H35.86V15.284H25.942V31.234H10.514V15.284H0.596V56H10.514V39.238H25.942V56ZM42.0198 56H51.9378V23.636H42.0198V56ZM47.0078 20.272C50.4878 20.272 52.8658 17.894 52.8658 14.936C52.8658 11.92 50.4878 9.542 47.0078 9.542C43.4698 9.542 41.0918 11.92 41.0918 14.936C41.0918 17.894 43.4698 20.272 47.0078 20.272ZM65.8203 58.61H123.82V0.610001H65.8203V58.61ZM123.922 64.758H130.418L137.784 45.966H127.634L123.922 64.758ZM0.596 134H10.514V109.524L19.678 134H27.682L36.788 109.582V134H46.706V93.284H35.048L23.738 121.472L12.312 93.284H0.596V134ZM67.7442 121.878L60.2622 101.636H49.1842L62.3502 132.898L54.9262 149.37H65.5982L85.8982 101.636H75.1682L67.7442 121.878ZM122.106 134H131.966V115.092C131.966 106.392 126.978 101.288 119.496 101.288C115.146 101.288 111.666 103.202 109.694 105.928V101.636H99.7757V134H109.694V116.426C109.694 112.018 112.13 109.582 115.9 109.582C119.67 109.582 122.106 112.018 122.106 116.426V134ZM135.886 117.76C135.886 127.968 142.208 134.464 150.096 134.464C154.91 134.464 158.332 132.26 160.13 129.418V134H170.048V101.636H160.13V106.218C158.39 103.376 154.968 101.172 150.154 101.172C142.208 101.172 135.886 107.552 135.886 117.76ZM160.13 117.818C160.13 122.98 156.824 125.822 153.054 125.822C149.342 125.822 145.978 122.922 145.978 117.76C145.978 112.598 149.342 109.814 153.054 109.814C156.824 109.814 160.13 112.656 160.13 117.818ZM220.825 134H230.685V115.092C230.685 106.392 225.523 101.288 217.519 101.288C212.821 101.288 208.761 103.898 206.615 107.32C204.411 103.434 200.467 101.288 195.595 101.288C191.361 101.288 188.055 103.086 186.141 105.696V101.636H176.223V134H186.141V116.426C186.141 112.192 188.577 109.872 192.347 109.872C196.117 109.872 198.553 112.192 198.553 116.426V134H208.413V116.426C208.413 112.192 210.849 109.872 214.619 109.872C218.389 109.872 220.825 112.192 220.825 116.426V134ZM250.889 109.118C254.195 109.118 256.979 111.148 256.979 114.686H244.567C245.147 111.09 247.641 109.118 250.889 109.118ZM266.375 123.27H255.819C255.007 125.01 253.441 126.402 250.657 126.402C247.467 126.402 244.857 124.43 244.509 120.196H266.955C267.071 119.21 267.129 118.224 267.129 117.296C267.129 107.436 260.459 101.172 251.005 101.172C241.377 101.172 234.649 107.552 234.649 117.818C234.649 128.084 241.493 134.464 251.005 134.464C259.067 134.464 264.809 129.592 266.375 123.27ZM282.653 134H292.571V101.636H282.653V134ZM287.641 98.272C291.121 98.272 293.499 95.894 293.499 92.936C293.499 89.92 291.121 87.542 287.641 87.542C284.103 87.542 281.725 89.92 281.725 92.936C281.725 95.894 284.103 98.272 287.641 98.272ZM325.032 124.604C324.858 112.54 307.342 116.194 307.342 111.032C307.342 109.466 308.618 108.538 310.938 108.538C313.722 108.538 315.404 109.988 315.694 112.192H324.858C324.22 105.812 319.58 101.172 311.228 101.172C302.76 101.172 298.062 105.696 298.062 111.206C298.062 123.096 315.694 119.326 315.694 124.546C315.694 125.996 314.36 127.156 311.808 127.156C309.082 127.156 307.052 125.648 306.82 123.386H297.018C297.482 129.65 303.282 134.464 311.924 134.464C320.044 134.464 325.032 130.23 325.032 124.604ZM0.596 274H10.514V233.284H0.596V274ZM37.9105 246.218V231.08H27.9925V274H37.9105V269.476C39.7085 272.318 43.1305 274.464 47.8865 274.464C55.8325 274.464 62.1545 267.968 62.1545 257.76C62.1545 247.552 55.8905 241.172 47.8865 241.172C43.2465 241.172 39.7085 243.318 37.9105 246.218ZM52.0625 257.76C52.0625 262.922 48.6985 265.822 44.9285 265.822C41.2165 265.822 37.8525 262.98 37.8525 257.818C37.8525 252.656 41.2165 249.814 44.9285 249.814C48.6985 249.814 52.0625 252.598 52.0625 257.76ZM98.3157 241.636H88.3977V259.21C88.3977 263.618 85.9617 266.054 82.1337 266.054C78.4217 266.054 75.9277 263.618 75.9277 259.21V241.636H66.0677V260.544C66.0677 269.186 71.1137 274.348 78.5957 274.348C82.9457 274.348 86.4257 272.376 88.3977 269.592V274H98.3157V241.636ZM104.44 274H114.358V241.636H104.44V274ZM109.428 238.272C112.908 238.272 115.286 235.894 115.286 232.936C115.286 229.92 112.908 227.542 109.428 227.542C105.89 227.542 103.512 229.92 103.512 232.936C103.512 235.894 105.89 238.272 109.428 238.272ZM120.545 274H130.463V231.08H120.545V274ZM134.679 257.76C134.679 267.968 141.001 274.464 148.947 274.464C153.703 274.464 157.125 272.318 158.923 269.36V274H168.841V231.08H158.923V246.102C156.951 243.144 153.239 241.172 148.947 241.172C141.001 241.172 134.679 247.552 134.679 257.76ZM158.923 257.818C158.923 262.98 155.617 265.822 151.847 265.822C148.135 265.822 144.771 262.922 144.771 257.76C144.771 252.598 148.135 249.814 151.847 249.814C155.617 249.814 158.923 252.656 158.923 257.818ZM187.873 262.748C187.873 271.158 192.571 274 199.299 274H204.345V265.59H200.807C198.603 265.59 197.791 264.778 197.791 262.864V249.872H204.287V241.636H197.791V233.748H187.873V241.636H183.929V249.872H187.873V262.748ZM208.869 274H218.787V256.426C218.787 252.018 221.223 249.582 224.993 249.582C228.763 249.582 231.199 252.018 231.199 256.426V274H241.059V255.092C241.059 246.392 236.129 241.288 228.763 241.288C224.297 241.288 220.759 243.202 218.787 245.986V231.08H208.869V274ZM246.951 274H256.869V241.636H246.951V274ZM251.939 238.272C255.419 238.272 257.797 235.894 257.797 232.936C257.797 229.92 255.419 227.542 251.939 227.542C248.401 227.542 246.023 229.92 246.023 232.936C246.023 235.894 248.401 238.272 251.939 238.272ZM285.387 274H295.247V255.092C295.247 246.392 290.259 241.288 282.777 241.288C278.427 241.288 274.947 243.202 272.975 245.928V241.636H263.057V274H272.975V256.426C272.975 252.018 275.411 249.582 279.181 249.582C282.951 249.582 285.387 252.018 285.387 256.426V274ZM299.167 257.76C299.167 267.968 305.489 274.464 313.435 274.464C318.191 274.464 321.613 272.202 323.411 269.36V273.942C323.411 279.394 320.453 281.366 316.683 281.366C313.261 281.366 310.825 279.8 310.187 277.364H300.385C301.255 285.078 307.519 289.95 317.147 289.95C328.341 289.95 333.329 282.584 333.329 273.942V241.636H323.411V246.218C321.671 243.318 318.191 241.172 313.435 241.172C305.489 241.172 299.167 247.552 299.167 257.76ZM323.411 257.818C323.411 262.98 320.105 265.822 316.335 265.822C312.623 265.822 309.259 262.922 309.259 257.76C309.259 252.598 312.623 249.814 316.335 249.814C320.105 249.814 323.411 252.656 323.411 257.818ZM365.778 264.604C365.604 252.54 348.088 256.194 348.088 251.032C348.088 249.466 349.364 248.538 351.684 248.538C354.468 248.538 356.15 249.988 356.44 252.192H365.604C364.966 245.812 360.326 241.172 351.974 241.172C343.506 241.172 338.808 245.696 338.808 251.206C338.808 263.096 356.44 259.326 356.44 264.546C356.44 265.996 355.106 267.156 352.554 267.156C349.828 267.156 347.798 265.648 347.566 263.386H337.764C338.228 269.65 344.028 274.464 352.67 274.464C360.79 274.464 365.778 270.23 365.778 264.604ZM383.123 274H393.041V249.872H398.377V241.636H393.041V241.346C393.041 237.924 394.375 236.764 398.203 236.996V228.586C388.343 228.064 383.123 232.24 383.123 240.708V241.636H379.527V249.872H383.123V274ZM433.705 257.818C433.705 247.552 426.397 241.172 416.885 241.172C407.431 241.172 400.065 247.552 400.065 257.818C400.065 268.084 407.257 274.464 416.769 274.464C426.281 274.464 433.705 268.084 433.705 257.818ZM410.157 257.818C410.157 252.308 413.289 249.756 416.885 249.756C420.365 249.756 423.613 252.308 423.613 257.818C423.613 263.27 420.307 265.88 416.769 265.88C413.173 265.88 410.157 263.27 410.157 257.818ZM447.885 258.978C447.885 253.41 450.611 251.786 455.309 251.786H458.035V241.288C453.685 241.288 450.147 243.608 447.885 247.03V241.636H437.967V274H447.885V258.978ZM478.519 274H489.423L494.701 253.004L499.805 274H510.767L519.525 241.636H510.187L505.663 264.662L500.153 241.636H489.655L484.203 264.778L479.621 241.636H469.703L478.519 274ZM536.575 249.118C539.881 249.118 542.665 251.148 542.665 254.686H530.253C530.833 251.09 533.327 249.118 536.575 249.118ZM552.061 263.27H541.505C540.693 265.01 539.127 266.402 536.343 266.402C533.153 266.402 530.543 264.43 530.195 260.196H552.641C552.757 259.21 552.815 258.224 552.815 257.296C552.815 247.436 546.145 241.172 536.691 241.172C527.063 241.172 520.335 247.552 520.335 257.818C520.335 268.084 527.179 274.464 536.691 274.464C544.753 274.464 550.495 269.592 552.061 263.27ZM566.965 246.218V231.08H557.047V274H566.965V269.476C568.763 272.318 572.185 274.464 576.941 274.464C584.887 274.464 591.209 267.968 591.209 257.76C591.209 247.552 584.945 241.172 576.941 241.172C572.301 241.172 568.763 243.318 566.965 246.218ZM581.117 257.76C581.117 262.922 577.753 265.822 573.983 265.822C570.271 265.822 566.907 262.98 566.907 257.818C566.907 252.656 570.271 249.814 573.983 249.814C577.753 249.814 581.117 252.598 581.117 257.76Z" fill="#42446E"/>
<path d="M10.514 181.496V171.288H15.908C19.852 171.288 21.534 173.26 21.534 176.392C21.534 179.524 19.852 181.496 15.908 181.496H10.514ZM31.626 176.392C31.626 168.91 26.638 163.284 16.662 163.284H0.596V204H10.514V189.384H16.662C27.044 189.384 31.626 183.12 31.626 176.392ZM33.8174 187.76C33.8174 197.968 40.1394 204.464 48.0274 204.464C52.8414 204.464 56.2634 202.26 58.0614 199.418V204H67.9794V171.636H58.0614V176.218C56.3214 173.376 52.8994 171.172 48.0854 171.172C40.1394 171.172 33.8174 177.552 33.8174 187.76ZM58.0614 187.818C58.0614 192.98 54.7554 195.822 50.9854 195.822C47.2734 195.822 43.9094 192.922 43.9094 187.76C43.9094 182.598 47.2734 179.814 50.9854 179.814C54.7554 179.814 58.0614 182.656 58.0614 187.818ZM71.0806 171.636L82.5646 204H94.8026L106.287 171.636H95.7306L88.7126 194.72L81.6946 171.636H71.0806ZM107.489 187.76C107.489 197.968 113.811 204.464 121.699 204.464C126.513 204.464 129.935 202.26 131.733 199.418V204H141.651V171.636H131.733V176.218C129.993 173.376 126.571 171.172 121.757 171.172C113.811 171.172 107.489 177.552 107.489 187.76ZM131.733 187.818C131.733 192.98 128.427 195.822 124.657 195.822C120.945 195.822 117.581 192.922 117.581 187.76C117.581 182.598 120.945 179.814 124.657 179.814C128.427 179.814 131.733 182.656 131.733 187.818ZM170.156 204H180.016V185.092C180.016 176.392 175.028 171.288 167.546 171.288C163.196 171.288 159.716 173.202 157.744 175.928V171.636H147.826V204H157.744V186.426C157.744 182.018 160.18 179.582 163.95 179.582C167.72 179.582 170.156 182.018 170.156 186.426V204ZM197.2 204H207.118V179.524L216.282 204H224.286L233.392 179.582V204H243.31V163.284H231.652L220.342 191.472L208.916 163.284H197.2V204ZM268.466 162.82C256.286 162.82 247.76 171.404 247.76 183.584C247.76 195.764 256.344 204.29 268.524 204.29C279.254 204.29 286.04 197.272 288.128 190.254V181.032H266.552V188.34H279.138C277.63 192.922 274.208 195.532 269.278 195.532C262.144 195.532 257.852 191.124 257.852 183.584C257.852 176.508 262.086 171.984 268.466 171.984C272.178 171.984 274.962 173.434 276.47 176.16H287.432C285.286 167.808 278.21 162.82 268.466 162.82Z" fill="url(#paint0_linear_4_7)"/>
<defs>
<linearGradient id="paint0_linear_4_7" x1="-33.4563" y1="143.501" x2="633" y2="143.501" gradientUnits="userSpaceOnUse">
<stop offset="0.0260229" stop-color="#13B0F5"/>
<stop offset="1" stop-color="#E70FAA"/>
</linearGradient>
</defs>
</svg>
